<svg width="21" height="20" viewBox="0 0 21 20" fill="none" xmlns="http://www.w3.org/2000/svg">
<path d="M17.1488 10.7203C17.1488 6.88094 14.0371 3.76929 10.1978 3.76929C6.35845 3.76929 3.2468 6.88094 3.2468 10.7203C3.2468 14.5596 6.35845 17.6713 10.1978 17.6713C10.2385 17.6713 10.2792 17.6713 10.32 17.6686V12.2598H8.82659V10.5193H10.32V9.23776C10.32 7.75253 11.2269 6.94339 12.5519 6.94339C13.1873 6.94339 13.733 6.98955 13.8905 7.01127V8.56438H12.9782C12.2586 8.56438 12.1175 8.9065 12.1175 9.40882V10.5166H13.8416L13.6163 12.2571H12.1175V17.4025C15.0227 16.5689 17.1488 13.8944 17.1488 10.7203V10.7203Z" fill="#C4C4C4"/>
</svg>
