<svg width="20" height="20" viewBox="0 0 20 20" fill="none" xmlns="http://www.w3.org/2000/svg">
<g clip-path="url(#clip0)">
<path d="M19.9811 6.33622C19.9358 5.30852 19.7696 4.60197 19.5315 3.98975C19.2859 3.33988 18.9081 2.75806 18.413 2.27439C17.9293 1.78319 17.3437 1.40151 16.7014 1.15975C16.0856 0.921677 15.3827 0.755484 14.355 0.710172C13.3196 0.661023 12.9909 0.649658 10.3649 0.649658C7.73891 0.649658 7.41021 0.661023 6.37867 0.706335C5.35096 0.751647 4.64442 0.917987 4.03234 1.15591C3.38233 1.40151 2.80051 1.77936 2.31684 2.27439C1.82564 2.75806 1.44411 3.34372 1.2022 3.98606C0.964127 4.60197 0.797934 5.30468 0.752622 6.33239C0.703473 7.36777 0.692108 7.69647 0.692108 10.3225C0.692108 12.9485 0.703473 13.2772 0.748785 14.3088C0.794097 15.3365 0.960437 16.043 1.19851 16.6552C1.44411 17.3051 1.82564 17.8869 2.31684 18.3706C2.80051 18.8618 3.38617 19.2435 4.0285 19.4852C4.64442 19.7233 5.34712 19.8895 6.37498 19.9348C7.40638 19.9803 7.73522 19.9915 10.3612 19.9915C12.9873 19.9915 13.316 19.9803 14.3475 19.9348C15.3752 19.8895 16.0817 19.7233 16.6938 19.4852C17.9937 18.9827 19.0214 17.955 19.524 16.6552C19.7619 16.0393 19.9282 15.3365 19.9735 14.3088C20.0189 13.2772 20.0302 12.9485 20.0302 10.3225C20.0302 7.69647 20.0264 7.36777 19.9811 6.33622ZM18.2393 14.2332C18.1977 15.1778 18.039 15.6879 17.9068 16.0279C17.5818 16.8706 16.913 17.5393 16.0704 17.8643C15.7303 17.9966 15.2165 18.1552 14.2756 18.1967C13.2554 18.2422 12.9495 18.2534 10.3688 18.2534C7.78806 18.2534 7.47826 18.2422 6.46176 18.1967C5.51715 18.1552 5.00706 17.9966 4.667 17.8643C4.24768 17.7094 3.866 17.4638 3.5562 17.1426C3.23503 16.8289 2.98943 16.4511 2.83446 16.0318C2.70221 15.6917 2.54355 15.1778 2.50207 14.237C2.45661 13.2168 2.4454 12.9107 2.4454 10.33C2.4454 7.7493 2.45661 7.4395 2.50207 6.42316C2.54355 5.47855 2.70221 4.96846 2.83446 4.62839C2.98943 4.20893 3.23503 3.82739 3.56004 3.51744C3.87353 3.19627 4.25137 2.95067 4.67084 2.79585C5.0109 2.6636 5.52483 2.50494 6.4656 2.46331C7.48578 2.418 7.7919 2.40664 10.3725 2.40664C12.957 2.40664 13.263 2.418 14.2795 2.46331C15.2241 2.50494 15.7342 2.6636 16.0742 2.79585C16.4935 2.95067 16.8752 3.19627 17.185 3.51744C17.5062 3.83108 17.7518 4.20893 17.9068 4.62839C18.039 4.96846 18.1977 5.48224 18.2393 6.42316C18.2846 7.44334 18.296 7.7493 18.296 10.33C18.296 12.9107 18.2846 13.213 18.2393 14.2332Z" fill="#C4C4C4"/>
<path d="M10.3649 5.354C7.62187 5.354 5.39627 7.57945 5.39627 10.3227C5.39627 13.0659 7.62187 15.2913 10.3649 15.2913C13.1081 15.2913 15.3336 13.0659 15.3336 10.3227C15.3336 7.57945 13.1081 5.354 10.3649 5.354ZM10.3649 13.5457C8.58537 13.5457 7.14188 12.1024 7.14188 10.3227C7.14188 8.54296 8.58537 7.09962 10.3649 7.09962C12.1446 7.09962 13.588 8.54296 13.588 10.3227C13.588 12.1024 12.1446 13.5457 10.3649 13.5457V13.5457Z" fill="#C4C4C4"/>
<path d="M16.6902 5.15752C16.6902 5.79808 16.1708 6.31747 15.53 6.31747C14.8895 6.31747 14.3701 5.79808 14.3701 5.15752C14.3701 4.5168 14.8895 3.99756 15.53 3.99756C16.1708 3.99756 16.6902 4.5168 16.6902 5.15752V5.15752Z" fill="#C4C4C4"/>
</g>
<defs>
<clipPath id="clip0">
<rect width="19.3419" height="19.3419" fill="white" transform="translate(0.658112 0.649658)"/>
</clipPath>
</defs>
</svg>
