<svg width="20" height="20" viewBox="0 0 20 20" fill="none" xmlns="http://www.w3.org/2000/svg">
<g clip-path="url(#clip0)">
<path d="M16.0497 11.1491C15.737 10.7542 15.8265 10.5785 16.0497 10.2255C16.0538 10.2215 18.6351 6.65449 18.901 5.44482L18.9027 5.44401C19.0348 5.00318 18.9027 4.6792 18.2636 4.6792H16.1489C15.6105 4.6792 15.3623 4.95724 15.2293 5.26832C15.2293 5.26832 14.1526 7.84563 12.6294 9.51628C12.1378 9.99902 11.9106 10.1538 11.6422 10.1538C11.51 10.1538 11.3045 9.99902 11.3045 9.55819V5.44401C11.3045 4.91533 11.1538 4.6792 10.7081 4.6792H7.38296C7.04528 4.6792 6.84461 4.92581 6.84461 5.15549C6.84461 5.65677 7.60619 5.77202 7.68517 7.18236V10.2424C7.68517 10.9129 7.56348 11.0362 7.2935 11.0362C6.57463 11.0362 4.82983 8.44845 3.79584 5.48672C3.58711 4.91211 3.38322 4.68001 2.84084 4.68001H0.72532C0.121693 4.68001 0 4.95804 0 5.26913C0 5.81876 0.718873 8.55161 3.34292 12.1621C5.09175 14.6266 7.55462 15.962 9.79505 15.962C11.1417 15.962 11.3061 15.6654 11.3061 15.1552C11.3061 12.8004 11.1844 12.5779 11.859 12.5779C12.1717 12.5779 12.71 12.7327 13.9673 13.9214C15.4042 15.3309 15.6403 15.962 16.4446 15.962H18.5593C19.1622 15.962 19.4676 15.6654 19.2919 15.0803C18.8898 13.8497 16.1722 11.3183 16.0497 11.1491V11.1491Z" fill="#C4C4C4"/>
</g>
<defs>
<clipPath id="clip0">
<rect width="19.3419" height="19.3419" fill="white" transform="translate(0 0.649658)"/>
</clipPath>
</defs>
</svg>
